<?xml version="1.0" standalone="no"?>
<!DOCTYPE svg PUBLIC "-//W3C//DTD SVG 20010904//EN"
 "http://www.w3.org/TR/2001/REC-SVG-20010904/DTD/svg10.dtd">
<svg version="1.0" xmlns="http://www.w3.org/2000/svg"
 width="1400.000000pt" height="669.000000pt" viewBox="0 0 1400.000000 669.000000"
 preserveAspectRatio="xMidYMid meet">

<g transform="translate(0.000000,669.000000) scale(0.100000,-0.100000)"
fill="#fff" stroke="none">
<path d="M5820 6349 c-58 -26 -105 -72 -138 -134 l-27 -50 0 -305 0 -305 28
-57 c33 -68 87 -117 154 -141 43 -15 102 -17 606 -17 306 0 557 -1 557 -2 0
-2 -7 -28 -15 -58 -19 -69 -19 -80 0 -80 13 0 15 -30 15 -210 0 -180 -2 -210
-15 -210 -19 0 -19 -12 0 -74 8 -27 15 -53 15 -58 0 -4 -1018 -8 -2263 -8
-2524 0 -2313 6 -2400 -70 -25 -23 -54 -62 -68 -92 l-24 -53 0 -430 0 -430 24
-53 c27 -59 74 -105 140 -136 46 -21 54 -21 1161 -26 l1115 -5 -48 -25 c-34
-17 -46 -29 -42 -41 7 -20 2 -24 -584 -568 -232 -215 -318 -288 -327 -280 -9
7 -21 -6 -49 -50 l-36 -60 -572 -3 c-367 -2 -578 -7 -589 -13 -14 -8 -9 -10
22 -10 22 0 34 3 27 7 -7 4 243 8 554 8 l567 -1 37 25 c20 14 46 28 57 32 13
4 18 12 15 25 -4 15 57 77 271 276 153 142 304 283 337 314 243 228 291 269
306 264 11 -4 27 11 53 50 l36 55 1140 0 c627 0 1140 -1 1140 -2 0 -2 -7 -28
-15 -58 -19 -69 -19 -80 0 -80 13 0 15 -26 15 -172 0 -95 -3 -264 -7 -375 -5
-168 -9 -203 -21 -203 -9 0 -12 -6 -7 -17 13 -34 28 -113 23 -118 -3 -3 -252
-5 -553 -5 -302 0 -547 -2 -544 -4 3 -3 505 -6 1116 -8 611 -2 1106 -7 1100
-11 -7 -5 -2 -7 13 -5 14 1 31 -1 38 -5 6 -5 12 -4 12 1 0 28 -76 32 -611 32
-433 0 -549 3 -549 13 0 6 7 34 15 61 19 61 19 66 0 66 -13 0 -15 48 -15 375
0 327 2 375 15 375 17 0 19 27 6 62 -4 13 -11 35 -15 51 l-6 27 1142 0 1143 0
33 -55 c25 -41 38 -54 51 -50 15 4 210 -171 621 -559 42 -39 126 -118 188
-175 85 -79 109 -107 101 -117 -8 -10 0 -18 33 -35 24 -12 54 -32 67 -46 15
-14 27 -20 31 -13 4 6 195 11 561 13 l554 2 -562 3 -563 2 -37 59 c-27 44 -40
57 -49 50 -9 -8 -33 8 -86 58 -226 209 -693 646 -756 706 -49 48 -71 75 -67
86 4 12 -8 24 -42 41 l-48 25 1120 5 c1039 5 1123 6 1157 22 56 27 106 75 136
132 l27 51 3 418 c4 493 3 497 -81 582 -94 94 152 85 -2414 85 -1245 0 -2263
2 -2263 5 0 3 8 33 17 66 16 57 16 62 0 71 -15 8 -17 32 -17 213 0 176 2 205
15 205 17 0 19 27 6 62 -4 13 -11 35 -15 50 l-6 28 572 2 573 3 48 25 c64 32
110 84 136 156 21 55 22 70 19 348 -3 282 -4 292 -26 336 -33 63 -79 109 -137
136 l-50 24 -1140 0 c-1125 0 -1141 -1 -1185 -21z m2343 -23 c57 -21 100 -58
132 -117 l30 -54 0 -290 c0 -220 -3 -299 -14 -329 -17 -49 -73 -111 -125 -139
l-41 -22 -1140 0 -1140 0 -41 22 c-52 28 -108 90 -125 139 -11 30 -14 108 -14
324 0 273 1 287 22 330 34 70 80 114 140 136 56 19 2260 20 2316 0z m-1087
-1756 c41 -31 56 -37 60 -27 5 15 12 12 569 -238 77 -35 295 -132 485 -217
780 -350 780 -350 778 -366 -2 -12 14 -19 72 -29 l75 -13 30 33 30 32 -32 -29
-33 -29 -59 47 c-46 36 -62 43 -68 33 -6 -11 -29 -5 -113 33 -58 26 -280 126
-495 222 -1293 581 -1222 548 -1223 571 l0 22 2207 -5 c1690 -4 2212 -8 2233
-17 47 -21 105 -82 127 -133 21 -50 22 -59 19 -478 l-3 -427 -28 -48 c-32 -54
-92 -102 -146 -117 -23 -6 -423 -10 -1124 -10 -599 0 -1093 -3 -1099 -6 -15
-10 -132 -8 -135 2 -2 5 -471 8 -1065 6 -585 -2 -1576 -3 -2203 -3 -627 0
-1160 -3 -1185 -8 -25 -4 -59 -4 -75 1 -17 4 -518 8 -1115 8 -871 1 -1092 3
-1122 14 -56 20 -114 71 -140 124 l-23 47 0 435 c0 429 0 436 22 476 24 45 80
98 122 117 44 20 314 22 2499 20 l2103 -1 55 -42z"/>
<path d="M6830 5871 c0 -73 4 -102 14 -110 9 -8 16 -8 20 -2 4 5 2 12 -4 16
-6 3 -10 47 -10 101 0 56 -4 94 -10 94 -6 0 -10 -40 -10 -99z"/>
<path d="M6700 5947 c-67 -34 -66 -153 1 -181 35 -15 62 -11 80 10 13 16 9 17
-23 5 -32 -12 -66 4 -79 36 -25 66 23 139 76 115 30 -14 34 2 6 18 -25 13 -30
13 -61 -3z"/>
<path d="M6905 5951 c-6 -11 9 -23 19 -14 9 9 7 23 -3 23 -6 0 -12 -4 -16 -9z"/>
<path d="M7310 5930 c0 -10 -7 -23 -16 -28 -11 -6 -13 -11 -5 -16 6 -4 11 -27
11 -52 0 -50 28 -88 56 -77 15 6 14 7 -4 14 -19 7 -22 16 -22 63 0 43 3 54 14
50 8 -3 17 -1 21 5 3 7 -2 11 -14 11 -16 0 -21 6 -21 25 0 14 -4 25 -10 25 -5
0 -10 -9 -10 -20z"/>
<path d="M6910 5830 c0 -40 4 -70 10 -70 6 0 10 30 10 70 0 40 -4 70 -10 70
-6 0 -10 -30 -10 -70z"/>
<path d="M6986 5878 c-30 -42 -9 -114 34 -119 33 -3 60 2 60 11 0 6 -10 8 -24
4 -18 -4 -31 1 -48 18 l-23 23 53 3 c44 3 52 6 52 23 0 39 -19 59 -55 59 -24
0 -39 -7 -49 -22z m72 0 c23 -23 13 -38 -23 -38 -22 0 -35 5 -35 13 0 16 20
37 35 37 6 0 16 -5 23 -12z"/>
<path d="M7139 5895 c0 0 -2 -30 -4 -67 -2 -52 1 -68 11 -68 10 0 14 15 14 55
0 45 4 56 21 65 33 18 49 -4 49 -66 0 -30 5 -54 10 -54 15 0 12 116 -3 129 -8
6 -32 10 -55 8 -23 -1 -42 -2 -43 -2z"/>
<path d="M7061 4070 c-6 -129 -6 -150 2 -150 4 0 7 8 7 19 0 10 7 25 16 32 14
11 19 10 34 -9 10 -12 20 -28 23 -35 2 -6 8 -9 12 -5 4 4 -2 20 -14 36 -26 37
-26 43 0 76 11 14 16 26 10 26 -5 0 -22 -16 -37 -35 -14 -19 -30 -35 -35 -35
-4 0 -10 33 -12 73 l-3 72 -3 -65z"/>
<path d="M6610 4015 l0 -95 45 0 c32 0 51 6 65 20 24 24 24 29 5 58 -12 17
-13 26 -5 42 9 17 8 27 -5 46 -12 19 -24 24 -60 24 l-45 0 0 -95z m84 72 c30
-22 16 -51 -27 -58 l-37 -6 0 39 c0 33 3 38 23 38 13 0 31 -6 41 -13z m14 -89
c18 -18 14 -46 -8 -58 -22 -12 -71 -10 -70 3 0 4 0 21 0 37 0 27 3 30 33 30
18 0 38 -5 45 -12z"/>
<path d="M6780 3990 c0 -81 18 -95 22 -17 2 43 7 54 26 62 12 5 22 13 22 17 0
12 -14 10 -29 -4 -11 -10 -14 -10 -18 0 -12 32 -23 5 -23 -58z"/>
<path d="M6908 4046 c-27 -20 -34 -71 -14 -101 22 -33 78 -35 100 -3 47 67
-24 151 -86 104z m66 -12 c33 -32 13 -104 -29 -104 -42 0 -61 66 -28 102 20
22 37 23 57 2z"/>
<path d="M7210 4040 c-24 -24 -26 -67 -4 -98 12 -17 24 -22 57 -20 41 1 41 1
7 5 -75 9 -83 57 -10 59 42 1 45 3 42 25 -8 51 -55 66 -92 29z m68 -2 c24 -24
13 -38 -28 -38 -43 0 -49 9 -24 34 19 19 36 20 52 4z"/>
<path d="M7357 4053 c-11 -10 -8 -133 2 -133 6 0 11 24 13 52 3 47 6 54 33 67
17 8 24 16 17 19 -7 2 -20 -2 -28 -9 -12 -10 -17 -10 -23 -1 -4 7 -10 9 -14 5z"/>
<path d="M4723 3773 c9 -2 23 -2 30 0 6 3 -1 5 -18 5 -16 0 -22 -2 -12 -5z"/>
<path d="M9278 3773 c7 -3 16 -2 19 1 4 3 -2 6 -13 5 -11 0 -14 -3 -6 -6z"/>
<path d="M6869 3723 c-13 -16 -12 -17 4 -4 16 13 21 21 13 21 -2 0 -10 -8 -17
-17z"/>
<path d="M9400 3737 c0 -2 15 -16 33 -33 l32 -29 -29 33 c-28 30 -36 37 -36
29z"/>
<path d="M7150 3706 c0 -2 8 -10 18 -17 15 -13 16 -12 3 4 -13 16 -21 21 -21
13z"/>
<path d="M7190 3645 c0 -5 5 -17 10 -25 5 -8 10 -10 10 -5 0 6 -5 17 -10 25
-5 8 -10 11 -10 5z"/>
<path d="M9482 3595 c0 -16 2 -22 5 -12 2 9 2 23 0 30 -3 6 -5 -1 -5 -18z"/>
<path d="M9482 3540 c0 -14 2 -19 5 -12 2 6 2 18 0 25 -3 6 -5 1 -5 -13z"/>
<path d="M4530 3496 c0 -8 4 -17 9 -20 5 -4 7 3 4 14 -6 23 -13 26 -13 6z"/>
<path d="M7169 3453 c-13 -16 -12 -17 4 -4 9 7 17 15 17 17 0 8 -8 3 -21 -13z"/>
<path d="M4565 3440 c10 -11 20 -20 23 -20 3 0 -3 9 -13 20 -10 11 -20 20 -23
20 -3 0 3 -9 13 -20z"/>
<path d="M6870 3416 c0 -2 8 -10 18 -17 15 -13 16 -12 3 4 -13 16 -21 21 -21
13z"/>
<path d="M3633 2313 c9 -8 1056 -7 1065 1 3 3 -237 6 -533 6 -296 0 -535 -3
-532 -7z"/>
<path d="M9301 2315 c7 -6 1040 -7 1047 0 3 3 -232 5 -523 5 -291 0 -526 -2
-524 -5z"/>
<path d="M4705 2301 c-28 -7 -26 -8 17 -12 36 -3 44 -1 36 8 -6 7 -13 12 -17
12 -3 -1 -19 -5 -36 -8z"/>
<path d="M5833 2300 c-13 -5 -23 -11 -23 -13 0 -2 10 -3 23 -2 12 1 33 3 47 4
20 1 22 3 10 11 -18 12 -28 12 -57 0z"/>
<path d="M9248 2297 c-7 -8 -19 -12 -25 -10 -13 5 -123 -99 -123 -115 0 -23
20 -21 26 2 3 13 17 33 30 43 13 10 24 23 24 30 0 7 3 12 8 12 4 -1 10 0 15 1
4 1 10 3 15 5 4 1 20 7 35 13 16 7 38 12 49 12 27 0 21 5 -14 14 -16 4 -32 1
-40 -7z"/>
<path d="M11540 2300 c-25 -8 -25 -8 5 -11 17 -1 35 -3 41 -3 6 -1 19 -9 28
-19 10 -9 24 -17 32 -17 8 0 12 -4 9 -10 -3 -6 1 -7 10 -4 18 7 8 24 -16 27
-8 2 -15 6 -16 11 -1 7 -62 39 -67 35 0 -1 -12 -5 -26 -9z"/>
<path d="M2377 2283 c-14 -13 -6 -20 18 -15 14 2 22 8 19 13 -6 11 -28 12 -37
2z"/>
<path d="M4787 2283 c-9 -14 9 -27 23 -18 6 3 10 -1 10 -10 0 -9 9 -19 20 -22
11 -3 17 -9 14 -14 -3 -5 3 -9 12 -9 14 0 10 8 -16 35 -18 19 -37 32 -41 30
-4 -3 -9 0 -11 7 -3 9 -6 9 -11 1z"/>
<path d="M8189 2278 c-12 -8 -12 -9 0 -6 7 2 32 -15 55 -38 41 -41 94 -72 66
-39 -7 8 -16 12 -21 9 -5 -3 -9 2 -9 10 0 8 -10 18 -21 21 -13 4 -17 10 -11
14 6 4 -1 13 -17 23 -19 10 -33 13 -42 6z"/>
<path d="M5781 2270 c-9 -5 -4 -7 13 -7 29 0 32 2 13 10 -8 3 -20 2 -26 -3z"/>
<path d="M2335 2246 c-16 -11 -16 -14 -2 -19 8 -3 21 0 27 8 15 19 -3 27 -25
11z"/>
<path d="M5745 2242 c-5 -4 -19 -17 -29 -29 -17 -21 -18 -23 -2 -23 9 0 15 4
12 9 -3 5 2 11 12 13 10 3 19 13 19 22 0 9 -1 16 -1 16 -1 0 -5 -4 -11 -8z"/>
<path d="M11686 2205 c9 -14 20 -22 25 -19 9 5 13 -9 10 -35 -2 -7 2 -10 8 -7
5 4 10 -2 10 -11 -1 -304 3 -581 9 -590 4 -6 6 93 6 220 -1 141 2 214 6 187 6
-30 7 -9 4 60 -4 86 -9 115 -30 158 -14 29 -30 50 -35 47 -5 -4 -9 -1 -9 4 0
6 -5 11 -10 11 -6 0 -3 -11 6 -25z"/>
<path d="M2282 2179 c-27 -49 -30 -78 -7 -59 8 7 15 17 15 22 0 6 9 22 20 38
18 25 18 40 0 40 -3 0 -16 -18 -28 -41z m26 11 c-7 -10 -14 -17 -17 -15 -4 4
18 35 25 35 2 0 -1 -9 -8 -20z"/>
<path d="M4887 2187 c-3 -8 1 -24 9 -36 8 -11 12 -21 8 -21 -3 0 0 -10 8 -23
13 -19 15 -67 11 -297 -2 -151 -4 -279 -5 -285 0 -5 -2 -14 -3 -20 0 -5 -9
-25 -18 -42 -10 -18 -15 -33 -12 -33 3 0 -9 -13 -27 -30 -23 -21 -28 -29 -17
-30 9 0 22 7 29 15 7 8 10 15 7 15 -3 0 5 11 19 25 14 14 23 32 20 40 -3 8 -1
17 5 20 5 4 7 11 4 16 -4 5 -2 9 4 9 14 0 15 547 0 604 -7 28 -16 43 -22 39
-6 -4 -8 0 -5 9 4 8 3 20 -2 27 -5 10 -9 9 -13 -2z"/>
<path d="M5695 2170 c3 -5 8 -10 11 -10 2 0 4 5 4 10 0 6 -5 10 -11 10 -5 0
-7 -4 -4 -10z"/>
<path d="M8313 2133 c6 -21 15 -40 19 -44 7 -5 4 -535 -3 -589 -2 -14 -12 -34
-21 -44 -20 -22 -23 -36 -9 -36 5 0 18 15 27 33 16 28 19 67 22 332 3 303 -4
385 -33 385 -10 0 -11 -8 -2 -37z"/>
<path d="M5677 2140 c-3 -11 -2 -22 2 -24 4 -3 8 6 9 20 2 29 -4 31 -11 4z"/>
<path d="M9086 2116 c5 -13 4 -17 -3 -13 -7 5 -11 -79 -12 -273 -1 -268 7
-372 30 -386 18 -11 19 2 4 47 -13 36 -16 94 -14 337 1 161 -2 296 -5 300 -4
3 -4 -2 0 -12z"/>
<path d="M5661 1846 c-1 -146 -2 -269 -2 -274 -5 -28 3 -62 12 -56 7 4 10 -3
9 -17 -4 -40 -1 -51 12 -43 8 5 9 2 5 -9 -4 -10 -2 -16 5 -14 7 1 12 -4 13
-11 0 -7 7 -17 15 -22 8 -5 11 -10 6 -10 -5 0 -1 -9 9 -20 10 -11 21 -17 25
-15 4 3 11 -2 14 -11 4 -9 13 -14 21 -10 8 3 15 2 15 -3 0 -29 62 -31 1175
-31 619 0 1125 3 1125 8 0 4 -506 6 -1125 5 -783 -2 -1125 1 -1125 8 0 6 -6 9
-12 7 -7 -3 -19 1 -26 8 -7 7 -20 10 -29 7 -10 -4 -14 -2 -10 4 4 6 -8 18 -26
27 -17 8 -27 16 -22 16 6 0 1 7 -9 15 -11 8 -16 15 -12 15 4 0 -3 15 -16 33
-23 32 -23 36 -26 337 -2 168 -7 309 -12 314 -5 5 -9 -103 -9 -258z"/>
<path d="M2250 1806 c0 -195 3 -297 10 -301 6 -4 10 -12 9 -18 -3 -29 1 -41
11 -31 8 8 8 19 0 38 -6 17 -10 139 -10 311 0 168 -4 286 -9 290 -6 3 -10
-106 -11 -289z"/>
<path d="M3112 1888 c-23 -23 -14 -58 20 -76 55 -30 70 -49 56 -72 -15 -23
-66 -27 -88 -7 -12 10 -12 9 -1 -5 36 -48 130 1 99 52 -7 11 -23 23 -35 26
-29 8 -56 39 -51 61 2 10 15 20 33 24 28 6 28 7 5 8 -15 0 -31 -4 -38 -11z"/>
<path d="M6516 1878 c-8 -12 -12 -26 -9 -32 4 -6 10 0 13 14 6 22 11 25 49 24
25 0 37 2 29 7 -25 16 -67 10 -82 -13z"/>
<path d="M7450 1890 c8 -5 20 -10 25 -10 6 0 3 5 -5 10 -8 5 -19 10 -25 10 -5
0 -3 -5 5 -10z"/>
<path d="M9961 1896 c2 -2 18 -6 34 -10 22 -5 26 -4 15 4 -14 9 -59 15 -49 6z"/>
<path d="M4020 1879 c-13 -9 -12 -10 3 -5 15 5 17 -3 17 -74 0 -74 -1 -79 -22
-83 -13 -2 0 -3 27 -3 28 0 40 1 28 3 -22 4 -23 9 -23 89 0 85 -3 92 -30 73z"/>
<path d="M7405 1880 c-3 -5 -2 -10 4 -10 5 0 13 5 16 10 3 6 2 10 -4 10 -5 0
-13 -4 -16 -10z"/>
<path d="M9924 1876 c-10 -27 1 -51 31 -64 51 -22 60 -29 63 -46 2 -9 -2 -23
-8 -31 -14 -17 -66 -20 -75 -5 -3 6 -12 10 -18 10 -7 0 -3 -7 7 -15 41 -31
106 -9 106 34 0 21 -16 37 -63 60 -25 13 -32 22 -30 44 2 29 -4 36 -13 13z"/>
<path d="M7485 1870 c-3 -5 -1 -10 4 -10 6 0 11 5 11 10 0 6 -2 10 -4 10 -3 0
-8 -4 -11 -10z"/>
<path d="M10895 1838 c-6 -12 -21 -25 -35 -29 -22 -6 -22 -7 -4 -8 23 -1 58
32 52 49 -2 6 -8 0 -13 -12z"/>
<path d="M3266 1826 c-9 -15 -13 -26 -9 -26 5 0 14 9 21 20 13 21 57 27 65 10
3 -6 4 -5 3 2 -1 7 -16 14 -33 16 -23 2 -34 -3 -47 -22z"/>
<path d="M3410 1820 c0 -16 4 -30 8 -30 5 0 7 14 4 30 -2 17 -6 30 -8 30 -2 0
-4 -13 -4 -30z"/>
<path d="M3521 1838 c0 -16 38 -106 38 -95 1 12 -31 107 -35 107 -2 0 -4 -6
-3 -12z"/>
<path d="M3616 1835 c-9 -26 -7 -32 5 -12 6 10 9 21 6 23 -2 3 -7 -2 -11 -11z"/>
<path d="M3690 1840 c-9 -6 -10 -10 -3 -10 6 0 15 5 18 10 8 12 4 12 -15 0z"/>
<path d="M3730 1846 c0 -2 7 -7 16 -10 8 -3 12 -2 9 4 -6 10 -25 14 -25 6z"/>
<path d="M6686 1834 c-24 -24 -19 -30 7 -8 12 10 24 20 26 21 2 2 -1 3 -7 3
-6 0 -18 -7 -26 -16z"/>
<path d="M6747 1830 c9 -11 19 -17 21 -15 6 6 -18 35 -29 35 -5 0 -1 -9 8 -20z"/>
<path d="M6847 1825 c-13 -18 -17 -38 -14 -73 l3 -47 2 52 c2 43 7 55 28 72
15 12 20 21 13 21 -8 0 -22 -12 -32 -25z"/>
<path d="M6932 1838 c3 -7 13 -37 22 -65 19 -56 30 -70 42 -52 4 7 3 9 -4 5
-6 -4 -19 19 -32 59 -12 36 -24 65 -27 65 -3 0 -3 -6 -1 -12z"/>
<path d="M7016 1805 c-10 -25 -16 -50 -14 -57 2 -6 12 13 21 42 21 66 16 77
-7 15z"/>
<path d="M7098 1833 c-8 -10 -18 -26 -21 -36 -7 -20 9 -68 26 -79 16 -10 65
-10 71 0 3 5 -8 6 -25 4 -34 -5 -59 12 -59 39 0 16 8 19 50 19 28 0 50 3 50 8
0 4 -22 5 -50 4 -39 -3 -50 -1 -50 11 0 17 18 33 45 40 19 4 19 5 -1 6 -11 0
-28 -7 -36 -16z"/>
<path d="M7240 1780 c0 -40 2 -71 5 -69 7 8 9 129 2 136 -4 3 -7 -27 -7 -67z"/>
<path d="M7275 1840 c-3 -6 1 -7 9 -4 18 7 21 14 7 14 -6 0 -13 -4 -16 -10z"/>
<path d="M7491 1838 c-1 -9 -21 -41 -47 -72 -32 -39 -40 -56 -29 -56 9 0 14 4
11 9 -3 4 4 17 15 27 29 26 61 82 56 97 -4 7 -6 6 -6 -5z"/>
<path d="M10106 1842 c-3 -4 8 -6 24 -4 24 3 31 0 39 -19 8 -22 6 -24 -33 -30
l-41 -6 42 -1 c49 -2 56 5 40 39 -13 24 -60 39 -71 21z"/>
<path d="M10275 1840 c-3 -6 1 -7 9 -4 18 7 21 14 7 14 -6 0 -13 -4 -16 -10z"/>
<path d="M10346 1830 c7 -28 12 -35 18 -29 2 2 -2 15 -10 29 l-15 25 7 -25z"/>
<path d="M10441 1843 c-1 -6 -4 -20 -7 -30 -5 -17 -5 -17 6 0 6 10 9 23 6 30
-3 9 -5 9 -5 0z"/>
<path d="M10509 1833 c-12 -16 -12 -17 1 -7 8 6 22 14 30 17 13 5 12 6 -1 6
-9 1 -23 -7 -30 -16z"/>
<path d="M10560 1846 c0 -2 8 -10 18 -17 15 -13 16 -12 3 4 -13 16 -21 21 -21
13z"/>
<path d="M10653 1780 c0 -56 2 -62 4 -25 5 53 15 72 48 85 15 7 16 9 4 9 -9 1
-23 -6 -30 -15 -12 -14 -14 -14 -20 3 -4 10 -7 -16 -6 -57z"/>
<path d="M7166 1827 c3 -10 9 -15 12 -12 3 3 0 11 -7 18 -10 9 -11 8 -5 -6z"/>
<path d="M3669 1799 c-6 -29 6 -70 24 -81 16 -10 65 -10 71 0 3 5 -8 6 -25 4
-33 -5 -59 12 -59 39 0 12 9 19 28 22 l27 4 -27 2 c-16 0 -28 8 -30 19 -3 12
-5 10 -9 -9z"/>
<path d="M6562 1805 c9 -10 21 -16 28 -13 7 2 -1 10 -16 17 -27 12 -28 11 -12
-4z"/>
<path d="M10243 1765 c0 -33 2 -45 4 -27 2 18 2 45 0 60 -2 15 -4 0 -4 -33z"/>
<path d="M3350 1801 c0 -6 -19 -12 -42 -14 l-43 -4 48 -1 c36 -2 47 2 47 13 0
8 -2 15 -5 15 -3 0 -5 -4 -5 -9z"/>
<path d="M10493 1800 c2 -9 17 -16 38 -16 31 -2 31 -1 4 3 -16 3 -34 10 -38
16 -6 8 -7 7 -4 -3z"/>
<path d="M10591 1794 c0 -11 3 -14 6 -6 3 7 2 16 -1 19 -3 4 -6 -2 -5 -13z"/>
<path d="M10076 1791 c-4 -7 -5 -15 -2 -18 9 -9 19 4 14 18 -4 11 -6 11 -12 0z"/>
<path d="M3748 1783 c7 -3 16 -2 19 1 4 3 -2 6 -13 5 -11 0 -14 -3 -6 -6z"/>
<path d="M6670 1780 c-9 -6 -10 -10 -3 -10 6 0 15 5 18 10 8 12 4 12 -15 0z"/>
<path d="M10374 1753 c7 -20 17 -38 23 -40 11 -4 39 64 30 73 -3 3 -8 -8 -12
-25 -9 -42 -22 -47 -30 -11 -4 16 -11 32 -15 35 -5 3 -3 -11 4 -32z"/>
<path d="M10903 1777 c16 -44 -47 -79 -81 -45 -9 9 -12 9 -12 0 0 -17 48 -26
79 -16 29 10 41 49 20 68 -9 8 -10 7 -6 -7z"/>
<path d="M3256 1760 c9 -33 33 -50 69 -48 30 1 30 1 -3 5 -24 3 -39 13 -53 36
-18 27 -19 28 -13 7z"/>
<path d="M3589 1750 c-6 -17 -16 -27 -22 -23 -6 3 -7 1 -3 -6 4 -6 11 -9 16
-6 9 6 31 65 24 65 -3 0 -10 -13 -15 -30z"/>
<path d="M3832 1760 c0 -14 2 -19 5 -12 2 6 2 18 0 25 -3 6 -5 1 -5 -13z"/>
<path d="M6598 1750 c-3 -17 -1 -27 4 -22 12 12 19 52 9 52 -5 0 -11 -14 -13
-30z"/>
<path d="M10491 1765 c-1 -6 6 -21 15 -33 16 -23 67 -31 79 -12 3 6 -1 7 -10
4 -25 -10 -61 4 -73 28 -6 13 -11 18 -11 13z"/>
<path d="M6670 1749 c0 -21 41 -42 71 -36 20 3 18 5 -8 6 -21 1 -37 9 -47 23
-12 16 -16 18 -16 7z"/>
<path d="M10080 1754 c0 -30 79 -60 94 -36 2 4 -10 6 -28 4 -26 -3 -37 1 -50
19 -9 13 -16 19 -16 13z"/>
<path d="M3825 1720 c3 -5 8 -10 11 -10 2 0 4 5 4 10 0 6 -5 10 -11 10 -5 0
-7 -4 -4 -10z"/>
<path d="M6543 1713 c9 -2 23 -2 30 0 6 3 -1 5 -18 5 -16 0 -22 -2 -12 -5z"/>
<path d="M7458 1713 c12 -2 30 -2 40 0 9 3 -1 5 -23 4 -22 0 -30 -2 -17 -4z"/>
<path d="M11722 1462 c-14 -33 -108 -128 -122 -124 -6 1 -10 -3 -10 -9 0 -5
-5 -7 -10 -4 -6 4 -17 1 -25 -5 -8 -7 -24 -9 -36 -5 -14 5 -19 4 -15 -4 4 -6
17 -11 29 -10 35 0 112 34 110 47 -2 7 4 12 12 12 8 0 15 7 15 16 0 8 4 13 9
10 9 -6 26 10 33 29 1 6 6 9 10 8 9 -3 22 41 16 57 -1 5 -9 -3 -16 -18z"/>
<path d="M2285 1440 c-3 -5 1 -10 10 -10 9 0 13 5 10 10 -3 6 -8 10 -10 10 -2
0 -7 -4 -10 -10z"/>
<path d="M9120 1420 c8 -5 11 -10 6 -10 -6 0 3 -13 19 -30 15 -16 32 -27 37
-24 12 7 -44 74 -62 74 -13 0 -13 -1 0 -10z"/>
<path d="M2302 1400 c6 -10 17 -16 23 -13 7 2 15 -5 17 -15 6 -22 89 -67 109
-59 8 3 -2 12 -26 22 -22 9 -55 31 -72 48 -38 36 -69 46 -51 17z"/>
<path d="M8257 1392 c-15 -16 -15 -19 -2 -19 8 0 22 9 32 19 14 15 14 18 1 18
-8 0 -22 -8 -31 -18z"/>
<path d="M4815 1350 c-3 -5 -2 -10 4 -10 5 0 13 5 16 10 3 6 2 10 -4 10 -5 0
-13 -4 -16 -10z"/>
<path d="M8210 1355 c0 -7 30 -13 34 -7 3 4 -4 9 -15 9 -10 1 -19 0 -19 -2z"/>
<path d="M9203 1344 c0 -15 40 -33 87 -39 42 -6 33 3 -33 30 -39 15 -54 18
-54 9z"/>
<path d="M4775 1340 c-3 -5 -16 -10 -28 -11 -21 0 -21 -1 -2 -8 26 -10 52 -3
52 15 0 16 -13 19 -22 4z"/>
<path d="M8140 1320 c-8 -5 -11 -13 -6 -17 5 -4 11 -2 13 5 3 6 10 9 15 6 7
-4 8 -2 4 4 -9 14 -7 14 -26 2z"/>
<path d="M2480 1308 c0 -5 507 -8 1127 -8 619 0 1124 2 1121 5 -8 9 -2248 11
-2248 3z"/>
<path d="M9388 1303 c12 -2 30 -2 40 0 9 3 -1 5 -23 4 -22 0 -30 -2 -17 -4z"/>
<path d="M9638 1303 c23 -2 61 -2 85 0 23 2 4 4 -43 4 -47 0 -66 -2 -42 -4z"/>
<path d="M9958 1303 c23 -2 61 -2 85 0 23 2 4 4 -43 4 -47 0 -66 -2 -42 -4z"/>
<path d="M10278 1303 c23 -2 61 -2 85 0 23 2 4 4 -43 4 -47 0 -66 -2 -42 -4z"/>
<path d="M10598 1303 c23 -2 61 -2 85 0 23 2 4 4 -43 4 -47 0 -66 -2 -42 -4z"/>
<path d="M10918 1303 c23 -2 61 -2 85 0 23 2 4 4 -43 4 -47 0 -66 -2 -42 -4z"/>
<path d="M11262 1303 c37 -2 100 -2 140 0 40 1 10 3 -67 3 -77 0 -110 -1 -73
-3z"/>
<path d="M6330 575 c0 -138 1 -145 20 -145 14 0 20 7 20 21 0 25 17 59 30 59
5 0 20 -18 32 -40 16 -28 30 -40 46 -40 29 0 28 6 -12 66 l-35 52 35 41 36 41
-29 0 c-22 -1 -36 -11 -63 -47 l-35 -47 -3 92 c-2 84 -5 92 -22 92 -19 0 -20
-8 -20 -145z"/>
<path d="M5680 565 l0 -135 65 0 c38 0 78 6 94 15 48 24 55 73 16 109 -22 21
-23 25 -10 36 8 7 15 27 15 46 0 48 -29 64 -112 64 l-68 0 0 -135z m107 99
c27 -7 39 -40 23 -59 -7 -8 -28 -15 -46 -15 -33 0 -34 1 -34 40 0 42 8 47 57
34z m33 -129 c29 -35 -6 -74 -67 -75 -21 0 -23 5 -23 45 l0 45 39 0 c22 0 44
-6 51 -15z"/>
<path d="M7480 670 c0 -19 -7 -33 -20 -40 -24 -13 -26 -30 -5 -30 12 0 15 -14
15 -65 0 -57 3 -69 25 -90 25 -26 50 -31 75 -15 17 11 5 26 -25 32 -17 3 -20
12 -23 71 -3 66 -3 67 23 67 16 0 25 6 25 15 0 9 -9 15 -25 15 -22 0 -25 4
-25 35 0 28 -4 35 -20 35 -16 0 -20 -7 -20 -30z"/>
<path d="M7647 693 c-4 -3 -7 -19 -7 -35 0 -18 -5 -28 -15 -28 -8 0 -15 -6
-15 -14 0 -8 7 -16 15 -20 11 -4 15 -22 15 -75 0 -64 2 -72 25 -87 16 -10 34
-14 51 -10 30 8 27 30 -4 34 -26 4 -35 31 -30 93 3 40 6 44 31 47 15 2 27 9
27 17 0 8 -12 15 -27 17 -23 2 -29 8 -31 36 -3 30 -19 41 -35 25z"/>
<path d="M5996 619 c-21 -17 -26 -18 -26 -5 0 9 -8 16 -20 16 -19 0 -20 -7
-20 -100 l0 -100 25 0 c24 0 25 2 25 68 0 72 16 102 53 102 10 0 17 8 17 20 0
26 -20 25 -54 -1z"/>
<path d="M6123 621 c-44 -28 -61 -99 -34 -150 12 -22 60 -51 85 -51 98 0 132
160 45 206 -37 19 -58 18 -96 -5z m87 -40 c15 -29 12 -87 -6 -105 -36 -37 -79
-8 -79 54 0 21 7 45 14 54 18 22 58 20 71 -3z"/>
<path d="M6584 630 c-34 -14 -54 -50 -54 -100 0 -57 20 -86 68 -100 42 -13 92
0 92 24 0 10 -11 12 -44 9 -37 -5 -46 -2 -59 17 -9 13 -14 27 -11 32 3 4 32 8
64 8 32 0 61 4 64 8 8 13 -12 78 -28 91 -19 16 -68 22 -92 11z m74 -57 c3 -21
-1 -23 -42 -23 -50 0 -54 4 -29 32 23 26 67 20 71 -9z"/>
<path d="M6826 619 c-21 -17 -26 -18 -26 -5 0 9 -8 16 -20 16 -19 0 -20 -7
-20 -100 l0 -100 25 0 c24 0 25 2 25 68 0 72 16 102 53 102 10 0 17 8 17 20 0
26 -20 25 -54 -1z"/>
<path d="M7078 626 c-16 -8 -28 -11 -28 -5 0 5 -9 9 -20 9 -19 0 -20 -7 -20
-144 l0 -143 26 5 c24 4 26 8 22 48 -3 36 0 43 12 38 39 -17 58 -14 87 10 39
33 51 88 30 139 -23 54 -59 69 -109 43z m56 -42 c22 -21 20 -77 -2 -104 -14
-18 -25 -22 -45 -16 -25 6 -27 10 -27 59 0 29 5 58 12 65 17 17 44 15 62 -4z"/>
<path d="M7280 629 c-31 -13 -32 -13 -25 -31 5 -13 11 -14 36 -5 21 8 34 8 46
1 30 -19 24 -31 -21 -43 -55 -13 -76 -34 -76 -71 0 -42 40 -67 83 -52 18 6 45
8 61 5 l28 -6 -3 86 c-3 61 -9 91 -20 102 -20 20 -77 28 -109 14z m80 -129 c0
-23 -5 -31 -25 -36 -58 -14 -76 28 -22 51 45 20 47 19 47 -15z"/>
<path d="M7820 627 c-34 -17 -63 -79 -55 -116 15 -68 77 -105 138 -82 42 16
29 37 -20 33 -33 -3 -44 1 -57 19 -9 13 -16 27 -16 31 0 5 29 8 65 8 l65 0 0
29 c0 43 -9 60 -41 76 -34 18 -47 18 -79 2z m68 -39 c25 -25 13 -38 -33 -38
-49 0 -50 1 -35 31 12 21 50 25 68 7z"/>
<path d="M8065 620 c-16 -18 -20 -19 -27 -5 -5 8 -18 15 -29 15 -19 0 -20 -6
-17 -97 3 -93 4 -98 26 -101 21 -3 22 0 22 58 0 73 10 94 50 108 33 12 41 42
12 42 -11 0 -27 -9 -37 -20z"/>
<path d="M8230 623 c-17 -12 -25 -13 -28 -5 -2 7 -12 12 -23 12 -17 0 -19 -8
-19 -101 0 -98 0 -100 23 -97 20 3 22 9 25 76 3 67 5 74 29 85 38 17 53 -10
53 -95 0 -61 2 -68 20 -68 18 0 20 7 20 85 0 72 -3 88 -20 105 -24 24 -48 25
-80 3z"/>
</g>
</svg>
